# xmcd
#
# Track frame offsets: 
#        150
#        18517
#        31652
#        52861
#        68303
#        90783
#        113804
#        137105
#        157628
#        172473
#
# Disc length: 2660 seconds
#
# Revision: 0
# Processed by: cddbd v1.5.2PL0 Copyright (c) Steve Scherf et al.
# Submitted via: ExactAudioCopy v0.99pb5
#
DISCID=6a0a620a
DTITLE=Bob Cheevers - Tall Texas Tales
DYEAR=2010
DGENRE=Alt Country
TTITLE0=Grown Up People
TTITLE1=Luckenbach
TTITLE2=Texas Is An Only Child
TTITLE3=Budget Motel
TTITLE4=Tuquoise Heart With A West Texas Smile
TTITLE5=Give This Heart
TTITLE6=Mushroom Cloud Lil
TTITLE7=Is It Ever Gonna Rain
TTITLE8=One Good Rib
TTITLE9=Falling
EXTD=
EXTT0=
EXTT1=
EXTT2=
EXTT3=
EXTT4=
EXTT5=
EXTT6=
EXTT7=
EXTT8=
EXTT9=
PLAYORDER=
